<svg width="216" height="83" viewBox="0 0 216 83" fill="none" xmlns="http://www.w3.org/2000/svg">
<path d="M14 18.056H27.248L39.92 56.84L52.496 18.056H65.36L48.752 66.056H30.608L14 18.056Z" fill="black"/>
<path d="M88.658 67.112C84.05 67.112 79.858 66.024 76.082 63.848C72.37 61.608 69.458 58.6 67.346 54.824C65.234 50.984 64.178 46.696 64.178 41.96C64.178 37.288 65.234 33.064 67.346 29.288C69.458 25.448 72.37 22.44 76.082 20.264C79.858 18.088 84.05 17 88.658 17C93.33 17 97.522 18.088 101.234 20.264C104.946 22.44 107.858 25.448 109.97 29.288C112.082 33.064 113.138 37.288 113.138 41.96C113.138 46.696 112.082 50.984 109.97 54.824C107.858 58.6 104.946 61.608 101.234 63.848C97.522 66.024 93.33 67.112 88.658 67.112ZM88.85 56.744C92.37 56.744 95.186 55.4 97.298 52.712C99.474 50.024 100.562 46.44 100.562 41.96C100.562 37.544 99.474 34.024 97.298 31.4C95.186 28.712 92.37 27.368 88.85 27.368H88.37C84.914 27.368 82.098 28.712 79.922 31.4C77.746 34.024 76.658 37.544 76.658 41.96C76.658 46.44 77.746 50.024 79.922 52.712C82.098 55.4 84.914 56.744 88.37 56.744H88.85Z" fill="black"/>
<path d="M138.476 67.112C133.804 67.112 129.676 66.088 126.092 64.04C122.508 61.928 119.724 58.984 117.74 55.208C115.756 51.368 114.764 46.952 114.764 41.96C114.764 37.224 115.788 32.968 117.836 29.192C119.884 25.416 122.7 22.44 126.284 20.264C129.932 18.088 134.028 17 138.572 17C144.652 17 149.708 18.664 153.74 21.992C157.836 25.32 160.172 29.736 160.748 35.24H148.172C147.788 32.872 146.732 30.952 145.004 29.48C143.276 27.944 141.132 27.176 138.572 27.176H138.284C134.892 27.176 132.204 28.552 130.22 31.304C128.236 34.056 127.244 37.608 127.244 41.96C127.244 46.312 128.236 49.864 130.22 52.616C132.204 55.368 134.892 56.744 138.284 56.744H138.572C141.132 56.744 143.276 55.976 145.004 54.44C146.732 52.904 147.788 50.984 148.172 48.68H160.844C160.076 54.184 157.676 58.632 153.644 62.024C149.612 65.416 144.556 67.112 138.476 67.112Z" fill="black"/>
<path d="M182.035 67.016C175.634 67.016 170.643 65.544 167.059 62.6C163.539 59.592 161.715 55.56 161.587 50.504H173.395C173.523 52.744 174.355 54.472 175.891 55.688C177.491 56.84 179.538 57.416 182.035 57.416H182.611C184.723 57.416 186.45 56.968 187.794 56.072C189.138 55.176 189.811 53.992 189.811 52.52C189.811 51.24 189.363 50.248 188.467 49.544C187.635 48.776 186.291 48.2 184.435 47.816L177.426 46.376C167.826 44.392 163.027 39.56 163.027 31.88C163.027 27.4 164.787 23.816 168.307 21.128C171.827 18.376 176.338 17 181.842 17C188.115 17 193.011 18.472 196.531 21.416C200.051 24.36 201.875 28.296 202.003 33.224H190.003C189.747 31.176 188.914 29.576 187.507 28.424C186.163 27.272 184.307 26.696 181.939 26.696H181.266C179.218 26.696 177.619 27.144 176.467 28.04C175.315 28.872 174.738 29.992 174.738 31.4C174.738 32.68 175.218 33.672 176.178 34.376C177.138 35.08 178.674 35.656 180.786 36.104L188.659 37.736C197.747 39.592 202.29 44.392 202.29 52.136C202.29 55.016 201.458 57.608 199.794 59.912C198.194 62.152 195.858 63.912 192.786 65.192C189.714 66.408 186.131 67.016 182.035 67.016Z" fill="black"/>
</svg>
