<svg width="83" height="83" viewBox="0 0 83 83" fill="none" xmlns="http://www.w3.org/2000/svg">
<path d="M43.6479 25.4375L37.8862 31.2969C42.476 31.9316 45.4546 33.3965 47.7006 35.6426C54.2436 42.1855 54.2436 51.3652 47.7983 57.8105L35.2983 70.3105C28.8042 76.8047 19.6245 76.8047 13.0815 70.3105C6.48974 63.7188 6.53854 54.5391 13.0327 48.0938L19.6245 41.502C18.4038 38.6699 18.1108 35.4473 18.4526 32.7129L7.75924 43.4062C-1.66455 52.7812 -1.71338 66.1113 7.80814 75.584C17.2807 85.1055 30.562 85.0566 39.9858 75.6328L53.0717 62.498C62.4467 53.123 62.4956 39.8418 53.0229 30.3203C50.8745 28.1719 48.0913 26.5605 43.6479 25.4375ZM40.0346 57.4199L45.7475 51.6094C41.1577 50.9746 38.1792 49.5098 35.9819 47.2637C29.4389 40.7207 29.4389 31.541 35.8842 25.0957L48.3842 12.5957C54.8784 6.1016 64.0581 6.0527 70.601 12.5957C77.144 19.1875 77.0952 28.3672 70.6499 34.8125L64.0581 41.4043C65.2788 44.2363 65.5717 47.459 65.2299 50.1934L75.9233 39.5C85.3471 30.0762 85.396 16.7949 75.8745 7.3223C66.4018 -2.1992 53.0717 -2.15041 43.6967 7.27339L30.6108 20.4082C21.2358 29.7832 21.1381 43.0645 30.6596 52.5859C32.8081 54.7344 35.5913 56.3457 40.0346 57.4199Z" fill="currentColor"/>
</svg>
