<svg fill="none" height="100%" viewBox="0 0 745 194" width="100%" xmlns="http://www.w3.org/2000/svg">
  <path
    d="M279.814 86.17C291.21 86.17 296.292 93.562 297.986 100.184L314.002 94.332C310.922 82.32 299.834 69.692 279.66 69.692C258.1 69.692 241.314 86.324 241.314 109.424C241.314 132.216 258.1 149.31 280.122 149.31C299.834 149.31 311.076 136.528 314.618 124.824L298.91 119.126C297.216 124.824 291.826 132.986 280.122 132.986C268.88 132.986 259.178 124.516 259.178 109.424C259.178 94.332 268.88 86.17 279.814 86.17ZM359.642 133.294C348.708 133.294 338.698 124.978 338.698 109.424C338.698 93.87 348.708 85.862 359.642 85.862C370.73 85.862 380.586 93.87 380.586 109.424C380.586 125.132 370.73 133.294 359.642 133.294ZM359.642 69.692C337.312 69.692 320.834 86.478 320.834 109.424C320.834 132.524 337.312 149.31 359.642 149.31C382.126 149.31 398.604 132.524 398.604 109.424C398.604 86.478 382.126 69.692 359.642 69.692ZM428.856 103.726C428.856 93.87 434.246 86.016 444.41 86.016C455.652 86.016 459.81 93.408 459.81 102.648V147H477.674V99.568C477.674 83.09 468.896 69.846 450.57 69.846C442.254 69.846 433.322 73.388 428.394 82.012V72.002H410.992V147H428.856V103.726ZM507.211 109.27C507.211 94.948 515.835 85.862 527.539 85.862C539.243 85.862 547.251 94.794 547.251 109.116C547.251 123.438 539.089 133.14 527.385 133.14C515.219 133.14 507.211 123.592 507.211 109.27ZM564.499 35.504H547.097V80.78C544.787 76.006 538.165 70 525.075 70C503.977 70 489.347 87.71 489.347 109.27C489.347 131.908 503.823 148.848 525.383 148.848C536.009 148.848 543.863 143.612 547.405 137.298C547.405 140.378 547.867 145.306 548.175 147H565.269C565.115 145.768 564.499 140.07 564.499 133.294V35.504ZM630.429 138.684C630.429 141.764 630.737 145.306 631.045 147H648.139C647.831 144.228 647.369 139.454 647.369 133.294V72.002H629.505V116.354C629.505 126.21 624.115 133.14 613.797 133.14C603.017 133.14 598.705 125.286 598.705 116.046V72.002H580.841V119.28C580.841 135.912 591.313 149.156 609.177 149.156C617.955 149.156 626.733 145.46 630.429 138.684ZM682.3 147V72.002H664.59V147H682.3ZM661.818 45.668C661.818 52.136 667.054 57.218 673.368 57.218C679.836 57.218 685.072 52.136 685.072 45.668C685.072 39.2 679.836 33.964 673.368 33.964C667.054 33.964 661.818 39.2 661.818 45.668ZM723.005 49.056H706.835V60.298C706.835 66.92 703.293 72.002 695.285 72.002H691.435V87.864H705.295V125.594C705.295 139.608 713.919 147.924 727.779 147.924C734.247 147.924 737.635 146.692 738.713 146.23V131.446C737.943 131.6 735.017 132.062 732.553 132.062C725.931 132.062 723.005 129.29 723.005 122.668V87.864H738.559V72.002H723.005V49.056Z"
    fill="black"
  />
  <path
    d="M159.3 136.208L189.033 84.6168L160.471 84.6168L130.738 136.208L159.3 136.208Z"
    fill="black"
    opacity="0.4"
  />
  <path
    d="M64.4446 138.941L81.5349 168.598L94.8325 191.669L109.113 166.888L78.7258 114.162L64.4446 138.941Z"
    fill="black"
    opacity="0.7"
  />
  <path
    d="M112.077 165.175L204.942 165.175L175.752 114.52L161.282 139.63L126.787 139.607L110.839 112.443L81.6897 112.443L112.077 165.175Z"
    fill="black"
  />
  <path
    d="M112.077 168.596L97.7913 193.382L190.657 193.382L204.942 168.596L112.077 168.596Z"
    fill="black"
    opacity="0.4"
  />
  <path
    d="M130.14 82.9086L113.801 110.734L127.765 134.516L157.508 82.9071L111.075 2.33458L81.8847 52.9893L112.574 52.9893L130.14 82.9086Z"
    fill="black"
    opacity="0.7"
  />
  <path
    d="M189.033 81.1955L142.598 0.618091L114.035 0.618089L160.483 81.1955L189.033 81.1955Z"
    fill="black"
  />
  <path
    d="M125.168 81.1955L110.616 56.4096L49.3962 56.4096L63.6796 81.1955L125.168 81.1955Z"
    fill="black"
  />
  <path
    d="M46.435 58.1226L-0.000268679 138.695L14.2707 163.459L60.7061 82.8866L46.435 58.1226Z"
    fill="black"
    opacity="0.7"
  />
  <path
    d="M77.7352 109.023L110.836 109.023L125.165 84.6192L63.6796 84.6192L17.2321 165.177L75.6126 165.177L60.4956 138.943L77.7352 109.023Z"
    fill="black"
    opacity="0.4"
  />
</svg>