<svg
  width="100%"
  height="100%"
  viewBox="0 0 69 40"
  fill="none"
  xmlns="http://www.w3.org/2000/svg"
>
  <title>Chevron Up</title>
  <path
    d="M1.95752 32.2441C1.22512 32.9277 0.785645 33.9531 0.785645 35.0762C0.785645 37.3711 2.54342 39.1289 4.83842 39.1289C5.96142 39.1289 6.98682 38.6895 7.67042 37.957L37.1138 8.36716H32.5727L62.0161 37.957C62.6997 38.6895 63.8227 39.1289 64.897 39.1289C67.1919 39.1289 68.9009 37.3711 68.9009 35.0762C68.9009 33.9531 68.4614 32.9277 67.729 32.2441L37.7485 2.06836C37.0161 1.23826 35.9419 0.847656 34.8677 0.847656C33.7446 0.847656 32.7192 1.23826 31.9868 2.06836L1.95752 32.2441Z"
    fill="currentColor"
  />
</svg>