<svg
  width="100%"
  height="100%"
  viewBox="0 0 69 39"
  fill="none"
  xmlns="http://www.w3.org/2000/svg"
>
  <title>Chevron Down</title>
  <path
    d="M34.8677 38.8398C35.9419 38.8398 37.0161 38.4492 37.7485 37.6191L67.729 7.44339C68.4614 6.71089 68.9009 5.73439 68.9009 4.61129C68.9009 2.31639 67.1919 0.558594 64.897 0.558594C63.8227 0.558594 62.7485 1.04689 62.0161 1.73049L32.5727 31.2715H37.1138L7.67042 1.73049C6.93802 1.04689 5.96142 0.558594 4.83842 0.558594C2.54342 0.558594 0.785645 2.31639 0.785645 4.61129C0.785645 5.73439 1.22512 6.71089 1.95752 7.44339L31.9868 37.6191C32.768 38.4492 33.7446 38.8398 34.8677 38.8398Z"
    fill="currentColor"
  />
</svg>