<svg width="208" height="58" viewBox="0 0 208 58" fill="none" xmlns="http://www.w3.org/2000/svg">
<g clip-path="url(#clip0_7_27)">
<path d="M20.72 54L1.424 3.936H14.528L26.384 36.24L27.248 39.744H27.344L28.304 36.24L40.064 3.936H53.024L33.344 54H20.72ZM79.175 55.2C71.559 55.2 65.239 52.688 60.215 47.664C55.191 42.608 52.679 36.384 52.679 28.992C52.679 21.568 55.191 15.344 60.215 10.32C65.271 5.264 71.591 2.736 79.175 2.736C86.727 2.736 93.031 5.264 98.087 10.32C103.143 15.344 105.671 21.568 105.671 28.992C105.671 36.384 103.143 42.608 98.087 47.664C93.063 52.688 86.759 55.2 79.175 55.2ZM79.175 43.824C83.111 43.824 86.455 42.416 89.207 39.6C91.991 36.784 93.383 33.248 93.383 28.992C93.383 24.672 91.991 21.12 89.207 18.336C86.423 15.552 83.079 14.16 79.175 14.16C75.239 14.16 71.879 15.552 69.095 18.336C66.343 21.12 64.967 24.672 64.967 28.992C64.967 33.248 66.343 36.784 69.095 39.6C71.847 42.416 75.207 43.824 79.175 43.824ZM136.495 55.2C128.911 55.2 122.655 52.736 117.727 47.808C112.799 42.88 110.335 36.592 110.335 28.944C110.335 21.296 112.815 15.024 117.775 10.128C122.735 5.2 129.007 2.736 136.591 2.736C140.207 2.736 143.407 3.248 146.191 4.272C149.007 5.296 151.503 6.8 153.679 8.784C155.887 10.768 157.951 13.792 159.871 17.856L149.167 22.128C147.983 19.952 146.831 18.32 145.711 17.232C144.623 16.144 143.343 15.312 141.871 14.736C140.399 14.128 138.719 13.824 136.831 13.824C132.895 13.824 129.535 15.248 126.751 18.096C123.999 20.912 122.623 24.512 122.623 28.896C122.623 33.344 123.999 36.992 126.751 39.84C129.535 42.688 132.879 44.112 136.783 44.112C138.639 44.112 140.287 43.824 141.727 43.248C143.167 42.64 144.479 41.76 145.663 40.608C146.847 39.456 148.031 37.76 149.215 35.52L159.967 39.648C158.239 43.456 156.287 46.416 154.111 48.528C151.935 50.64 149.423 52.288 146.575 53.472C143.727 54.624 140.367 55.2 136.495 55.2ZM184.991 55.2C181.375 55.2 178.287 54.8 175.727 54C173.199 53.232 170.959 52.096 169.007 50.592C167.087 49.056 165.535 47.376 164.351 45.552C163.199 43.728 162.623 42.816 162.623 42.816L171.263 37.632C171.263 37.632 171.711 38.288 172.607 39.6C173.503 40.88 174.527 41.984 175.679 42.912C176.831 43.84 178.143 44.576 179.615 45.12C181.119 45.632 182.927 45.888 185.039 45.888C187.567 45.888 189.599 45.392 191.135 44.4C192.703 43.408 193.487 42.032 193.487 40.272C193.487 38.48 192.783 37.136 191.375 36.24C189.999 35.344 187.119 34.368 182.735 33.312C176.207 31.776 171.583 29.76 168.863 27.264C166.175 24.736 164.831 21.52 164.831 17.616C164.831 13.04 166.703 9.424 170.447 6.768C174.223 4.08 178.991 2.736 184.751 2.736C187.663 2.736 190.207 3.04 192.383 3.648C194.559 4.256 196.495 5.168 198.191 6.384C199.919 7.6 201.375 8.976 202.559 10.512C203.743 12.016 204.335 12.768 204.335 12.768L196.175 18.432C196.175 18.432 195.791 17.952 195.023 16.992C194.255 16 193.327 15.12 192.239 14.352C191.183 13.584 190.015 13.024 188.735 12.672C187.487 12.288 186.111 12.096 184.607 12.096C182.175 12.096 180.255 12.576 178.847 13.536C177.439 14.496 176.735 15.68 176.735 17.088C176.735 18.72 177.471 19.984 178.943 20.88C180.415 21.776 183.407 22.752 187.919 23.808C194.287 25.28 198.815 27.232 201.503 29.664C204.191 32.064 205.535 35.376 205.535 39.6C205.535 44.464 203.631 48.288 199.823 51.072C196.015 53.824 191.071 55.2 184.991 55.2Z" fill="black"/>
</g>
<defs>
<clipPath id="clip0_7_27">
<rect width="208" height="58" fill="white"/>
</clipPath>
</defs>
</svg>
