<svg width="238" height="85" viewBox="0 0 238 85" fill="none" xmlns="http://www.w3.org/2000/svg">
<g clip-path="url(#clip0_7_11)">
<path d="M34.72 68L15.424 17.936H28.528L40.384 50.24L41.248 53.744H41.344L42.304 50.24L54.064 17.936H67.024L47.344 68H34.72ZM93.175 69.2C85.559 69.2 79.239 66.688 74.215 61.664C69.191 56.608 66.679 50.384 66.679 42.992C66.679 35.568 69.191 29.344 74.215 24.32C79.271 19.264 85.591 16.736 93.175 16.736C100.727 16.736 107.031 19.264 112.087 24.32C117.143 29.344 119.671 35.568 119.671 42.992C119.671 50.384 117.143 56.608 112.087 61.664C107.063 66.688 100.759 69.2 93.175 69.2ZM93.175 57.824C97.111 57.824 100.455 56.416 103.207 53.6C105.991 50.784 107.383 47.248 107.383 42.992C107.383 38.672 105.991 35.12 103.207 32.336C100.423 29.552 97.079 28.16 93.175 28.16C89.239 28.16 85.879 29.552 83.095 32.336C80.343 35.12 78.967 38.672 78.967 42.992C78.967 47.248 80.343 50.784 83.095 53.6C85.847 56.416 89.207 57.824 93.175 57.824ZM150.495 69.2C142.911 69.2 136.655 66.736 131.727 61.808C126.799 56.88 124.335 50.592 124.335 42.944C124.335 35.296 126.815 29.024 131.775 24.128C136.735 19.2 143.007 16.736 150.591 16.736C154.207 16.736 157.407 17.248 160.191 18.272C163.007 19.296 165.503 20.8 167.679 22.784C169.887 24.768 171.951 27.792 173.871 31.856L163.167 36.128C161.983 33.952 160.831 32.32 159.711 31.232C158.623 30.144 157.343 29.312 155.871 28.736C154.399 28.128 152.719 27.824 150.831 27.824C146.895 27.824 143.535 29.248 140.751 32.096C137.999 34.912 136.623 38.512 136.623 42.896C136.623 47.344 137.999 50.992 140.751 53.84C143.535 56.688 146.879 58.112 150.783 58.112C152.639 58.112 154.287 57.824 155.727 57.248C157.167 56.64 158.479 55.76 159.663 54.608C160.847 53.456 162.031 51.76 163.215 49.52L173.967 53.648C172.239 57.456 170.287 60.416 168.111 62.528C165.935 64.64 163.423 66.288 160.575 67.472C157.727 68.624 154.367 69.2 150.495 69.2ZM198.991 69.2C195.375 69.2 192.287 68.8 189.727 68C187.199 67.232 184.959 66.096 183.007 64.592C181.087 63.056 179.535 61.376 178.351 59.552C177.199 57.728 176.623 56.816 176.623 56.816L185.263 51.632C185.263 51.632 185.711 52.288 186.607 53.6C187.503 54.88 188.527 55.984 189.679 56.912C190.831 57.84 192.143 58.576 193.615 59.12C195.119 59.632 196.927 59.888 199.039 59.888C201.567 59.888 203.599 59.392 205.135 58.4C206.703 57.408 207.487 56.032 207.487 54.272C207.487 52.48 206.783 51.136 205.375 50.24C203.999 49.344 201.119 48.368 196.735 47.312C190.207 45.776 185.583 43.76 182.863 41.264C180.175 38.736 178.831 35.52 178.831 31.616C178.831 27.04 180.703 23.424 184.447 20.768C188.223 18.08 192.991 16.736 198.751 16.736C201.663 16.736 204.207 17.04 206.383 17.648C208.559 18.256 210.495 19.168 212.191 20.384C213.919 21.6 215.375 22.976 216.559 24.512C217.743 26.016 218.335 26.768 218.335 26.768L210.175 32.432C210.175 32.432 209.791 31.952 209.023 30.992C208.255 30 207.327 29.12 206.239 28.352C205.183 27.584 204.015 27.024 202.735 26.672C201.487 26.288 200.111 26.096 198.607 26.096C196.175 26.096 194.255 26.576 192.847 27.536C191.439 28.496 190.735 29.68 190.735 31.088C190.735 32.72 191.471 33.984 192.943 34.88C194.415 35.776 197.407 36.752 201.919 37.808C208.287 39.28 212.815 41.232 215.503 43.664C218.191 46.064 219.535 49.376 219.535 53.6C219.535 58.464 217.631 62.288 213.823 65.072C210.015 67.824 205.071 69.2 198.991 69.2Z" fill="black"/>
</g>
<defs>
<clipPath id="clip0_7_11">
<rect width="238" height="85" fill="white"/>
</clipPath>
</defs>
</svg>
