<svg width="256" height="256" viewBox="0 0 256 256" fill="none" xmlns="http://www.w3.org/2000/svg">
<path d="M120.95 204.949L64.7024 70.6446C61.7365 63.4817 56.652 58.7415 49.4489 56.4241L45 55.1601V52H127.305V55.1601L121.585 56.4241C113.323 58.5309 110.781 64.0084 113.959 72.8567L147.326 161.023L178.468 73.4887C180.163 69.2752 180.587 65.7991 179.739 63.0604C178.892 60.3216 176.35 58.3202 172.112 57.0562L164.168 55.1601V52H210.246V55.1601L201.031 57.3722C197.005 58.4255 193.828 60.0056 191.497 62.1123C189.379 64.2191 187.578 67.3792 186.095 71.5926L139.381 204.949H120.95Z" fill="#474747"/>
</svg>
