<svg width="745" height="204" viewBox="0 0 745 204" fill="none" xmlns="http://www.w3.org/2000/svg">
<g clip-path="url(#clip0_16_2)">
<path d="M98.8173 199.6L25.6346 24.8582C21.7756 15.5386 15.1603 9.37125 5.78846 6.35611L0 4.71148V0.599899H107.087V4.71148L99.6442 6.35611C88.8942 9.09715 85.5865 16.2239 89.7212 27.7363L133.135 142.449L173.654 28.5586C175.859 23.0765 176.41 18.5538 175.308 14.9904C174.205 11.427 170.897 8.82304 165.385 7.17841L155.048 4.71148V0.599899H215V4.71148L203.01 7.58958C197.772 8.9601 193.638 11.0159 190.606 13.7569C187.849 16.498 185.506 20.6095 183.577 26.0916L122.798 199.6H98.8173Z" fill="white"/>
<path d="M498.533 204.45C480.395 204.45 463.858 200.582 448.921 192.847C434.25 184.845 422.514 173.376 413.712 158.439C405.177 143.235 400.909 124.697 400.909 102.825C400.909 81.2198 405.577 62.8153 414.912 47.6116C424.515 32.1412 437.184 20.405 452.922 12.403C468.925 4.13434 486.396 0 505.334 0C520.805 0 533.875 2.53395 544.544 7.60185C555.213 12.6698 563.349 19.3381 568.95 27.6067C574.551 35.6087 577.352 44.0107 577.352 52.8129C577.352 60.2814 575.085 66.1495 570.55 70.4172C566.016 74.4182 560.148 76.4187 552.946 76.4187C545.211 76.4187 538.943 73.618 534.141 68.0166C529.34 62.4152 526.54 55.0801 525.739 46.0112C525.473 40.1431 525.606 35.2086 526.139 31.2076C526.673 26.9399 526.673 22.6722 526.139 18.4045C525.073 13.8701 523.339 10.936 520.938 9.60234C518.804 8.00195 515.737 7.20176 511.736 7.20176C495.465 7.20176 482.796 14.2702 473.727 28.4069C464.924 42.5437 460.523 65.0826 460.523 96.0234C460.523 122.963 465.458 143.635 475.327 158.039C485.463 172.175 500.933 179.244 521.738 179.244C534.275 179.244 544.411 176.977 552.146 172.442C559.881 167.908 567.349 161.106 574.551 152.037L578.552 155.238C571.884 170.975 561.615 183.111 547.745 191.647C533.875 200.182 517.471 204.45 498.533 204.45Z" fill="white"/>
<path d="M657.429 204.45C644.359 204.45 632.623 202.85 622.22 199.649C611.818 196.715 602.215 192.98 593.413 188.446L593.813 140.834H597.814L611.417 164.84C617.286 175.51 623.687 183.511 630.622 188.846C637.824 193.914 646.893 196.448 657.829 196.448C670.632 196.448 680.901 193.647 688.636 188.046C696.638 182.178 700.639 174.443 700.639 164.84C700.639 156.038 697.839 148.836 692.237 143.235C686.636 137.634 676.233 132.566 661.03 128.031L644.225 122.83C627.955 118.029 615.152 110.56 605.816 100.425C596.48 90.2887 591.813 77.8857 591.813 63.2154C591.813 45.6111 598.748 30.6742 612.618 18.4045C626.488 6.13483 646.359 0 672.232 0C682.635 0 692.371 1.20029 701.439 3.60088C710.775 5.73473 719.711 9.06888 728.246 13.6033L725.845 56.8139H721.844L707.841 32.0078C702.773 23.2057 697.705 17.0708 692.637 13.6033C687.836 9.86908 680.501 8.00196 670.632 8.00196C661.563 8.00196 653.028 10.5359 645.026 15.6038C637.024 20.6717 633.023 27.8735 633.023 37.2091C633.023 46.278 636.357 53.4797 643.025 58.8144C649.96 64.149 660.096 69.0835 673.433 73.618L691.437 78.8192C710.642 84.6873 724.378 92.8227 732.647 103.225C740.916 113.361 745.05 125.631 745.05 140.034C745.05 159.506 737.315 175.109 721.844 186.846C706.641 198.582 685.169 204.45 657.429 204.45Z" fill="white"/>
<path d="M286.767 204.45C266.495 204.45 248.891 200.316 233.954 192.047C219.017 183.511 207.414 171.509 199.145 156.038C191.143 140.568 187.142 122.43 187.142 101.625C187.142 80.8197 191.41 62.8153 199.946 47.6116C208.748 32.4079 220.617 20.6717 235.554 12.403C250.758 4.13434 267.829 0 286.767 0C305.705 0 322.642 4.13434 337.579 12.403C352.516 20.405 364.252 32.0078 372.788 47.2115C381.59 62.4152 385.991 80.553 385.991 101.625C385.991 122.697 381.857 140.968 373.588 156.438C365.586 171.642 354.117 183.511 339.18 192.047C324.509 200.316 307.038 204.45 286.767 204.45ZM286.767 196.448C296.102 196.448 303.571 193.781 309.172 188.446C314.774 183.111 318.775 173.642 321.175 160.039C323.842 146.436 325.176 127.231 325.176 102.425C325.176 77.3522 323.842 58.0142 321.175 44.4108C318.775 30.8075 314.774 21.3385 309.172 16.0039C303.571 10.6693 296.102 8.00196 286.767 8.00196C277.431 8.00196 269.829 10.6693 263.961 16.0039C258.36 21.3385 254.225 30.8075 251.558 44.4108C249.158 58.0142 247.957 77.3522 247.957 102.425C247.957 127.231 249.158 146.436 251.558 160.039C254.225 173.642 258.36 183.111 263.961 188.446C269.829 193.781 277.431 196.448 286.767 196.448Z" fill="white"/>
</g>
<defs>
<clipPath id="clip0_16_2">
<rect width="745" height="204" fill="white"/>
</clipPath>
</defs>
</svg>
