<svg width="188" height="52" viewBox="0 0 188 52" fill="none" xmlns="http://www.w3.org/2000/svg">
<g clip-path="url(#clip0_6_2)">
<path d="M0 2.056H13.248L25.92 40.84L38.496 2.056H51.36L34.752 50.056H16.608L0 2.056Z" fill="black"/>
<path d="M74.658 51.112C70.05 51.112 65.858 50.024 62.082 47.848C58.37 45.608 55.458 42.6 53.346 38.824C51.234 34.984 50.178 30.696 50.178 25.96C50.178 21.288 51.234 17.064 53.346 13.288C55.458 9.448 58.37 6.44 62.082 4.264C65.858 2.088 70.05 1 74.658 1C79.33 1 83.522 2.088 87.234 4.264C90.946 6.44 93.858 9.448 95.97 13.288C98.082 17.064 99.138 21.288 99.138 25.96C99.138 30.696 98.082 34.984 95.97 38.824C93.858 42.6 90.946 45.608 87.234 47.848C83.522 50.024 79.33 51.112 74.658 51.112ZM74.85 40.744C78.37 40.744 81.186 39.4 83.298 36.712C85.474 34.024 86.562 30.44 86.562 25.96C86.562 21.544 85.474 18.024 83.298 15.4C81.186 12.712 78.37 11.368 74.85 11.368H74.37C70.914 11.368 68.098 12.712 65.922 15.4C63.746 18.024 62.658 21.544 62.658 25.96C62.658 30.44 63.746 34.024 65.922 36.712C68.098 39.4 70.914 40.744 74.37 40.744H74.85Z" fill="black"/>
<path d="M124.476 51.112C119.804 51.112 115.676 50.088 112.092 48.04C108.508 45.928 105.724 42.984 103.74 39.208C101.756 35.368 100.764 30.952 100.764 25.96C100.764 21.224 101.788 16.968 103.836 13.192C105.884 9.416 108.7 6.44 112.284 4.264C115.932 2.088 120.028 1 124.572 1C130.652 1 135.708 2.664 139.74 5.992C143.836 9.32 146.172 13.736 146.748 19.24H134.172C133.788 16.872 132.732 14.952 131.004 13.48C129.276 11.944 127.132 11.176 124.572 11.176H124.284C120.892 11.176 118.204 12.552 116.22 15.304C114.236 18.056 113.244 21.608 113.244 25.96C113.244 30.312 114.236 33.864 116.22 36.616C118.204 39.368 120.892 40.744 124.284 40.744H124.572C127.132 40.744 129.276 39.976 131.004 38.44C132.732 36.904 133.788 34.984 134.172 32.68H146.844C146.076 38.184 143.676 42.632 139.644 46.024C135.612 49.416 130.556 51.112 124.476 51.112Z" fill="black"/>
<path d="M168.035 51.016C161.634 51.016 156.643 49.544 153.059 46.6C149.539 43.592 147.715 39.56 147.587 34.504H159.395C159.523 36.744 160.355 38.472 161.891 39.688C163.491 40.84 165.538 41.416 168.035 41.416H168.611C170.723 41.416 172.45 40.968 173.794 40.072C175.138 39.176 175.811 37.992 175.811 36.52C175.811 35.24 175.363 34.248 174.467 33.544C173.635 32.776 172.291 32.2 170.435 31.816L163.426 30.376C153.826 28.392 149.027 23.56 149.027 15.88C149.027 11.4 150.787 7.816 154.307 5.128C157.827 2.376 162.338 1 167.842 1C174.115 1 179.011 2.472 182.531 5.416C186.051 8.36 187.875 12.296 188.003 17.224H176.003C175.747 15.176 174.914 13.576 173.507 12.424C172.163 11.272 170.307 10.696 167.939 10.696H167.266C165.218 10.696 163.619 11.144 162.467 12.04C161.315 12.872 160.738 13.992 160.738 15.4C160.738 16.68 161.218 17.672 162.178 18.376C163.138 19.08 164.674 19.656 166.786 20.104L174.659 21.736C183.747 23.592 188.29 28.392 188.29 36.136C188.29 39.016 187.458 41.608 185.794 43.912C184.194 46.152 181.858 47.912 178.786 49.192C175.714 50.408 172.131 51.016 168.035 51.016Z" fill="black"/>
</g>
<defs>
<clipPath id="clip0_6_2">
<rect width="188" height="52" fill="white"/>
</clipPath>
</defs>
</svg>
